<?xml version="1.0" encoding="UTF-8"?>
<svg id="Capa_2" data-name="Capa 2" xmlns="http://www.w3.org/2000/svg" viewBox="0 0 481.77 152.21">
  <defs>
    <style>
      .cls-1 {
        fill: #fff;
      }
    </style>
  </defs>
  <g id="Capa_1-2" data-name="Capa 1">
    <g>
      <path class="cls-1" d="M51.59,127.12l-.11.09c-.11.09-.12.24-.03.35s.24.12.35.03l.11-.09c.11-.09.12-.24.03-.35s-.24-.12-.35-.03"/>
      <path class="cls-1" d="M155.22,126.06l-47.24,8.33c-.72.13-1.19.81-1.07,1.52s.81,1.19,1.52,1.07l47.24-8.33c.72-.13,1.19-.81,1.07-1.52-.13-.72-.81-1.19-1.52-1.07"/>
      <polyline class="cls-1" points="94.41 148.28 112.47 148.28 112.47 147.63 94.41 147.63"/>
      <path class="cls-1" d="M101.94,145.7c-32.05-5.43-64.1-10.86-96.15-16.3v5.3c32.05,5.5,64.1,11.01,96.15,16.51,31.88-5.5,63.76-11.01,95.64-16.51v-5.13c-31.88,5.37-63.76,10.75-95.64,16.12Z"/>
      <path class="cls-1" d="M101.94,145.7l.16-.97c-32.05-5.43-64.1-10.86-96.15-16.3-.29-.05-.58.03-.8.22-.22.19-.35.46-.35.75,0,1.77,0,3.54,0,5.3,0,.48.35.89.82.97,32.05,5.5,64.1,11.01,96.15,16.51.11.02.23.02.33,0,31.88-5.5,63.76-11.01,95.64-16.51.47-.08.82-.49.82-.97v-5.13c0-.29-.13-.57-.35-.75-.22-.19-.52-.27-.8-.22-31.88,5.37-63.76,10.75-95.64,16.12l.16.97.16-.97-.16.97.16.97c31.88-5.37,63.76-10.75,95.64-16.12l-.16-.97h-.99c0,1.71,0,3.42,0,5.13h.99l-.17-.97c-31.88,5.5-63.76,11.01-95.64,16.51l.17.97.17-.97c-32.05-5.5-64.1-11.01-96.15-16.51l-.17.97h.99v-5.3h-.99l-.16.97c32.05,5.43,64.1,10.86,96.15,16.3.11.02.22.02.33,0l-.16-.97Z"/>
      <path class="cls-1" d="M48.58,126L2.22,117.6c-.71-.13-1.4.35-1.53,1.06-.13.71.35,1.4,1.06,1.53l46.36,8.4c.71.13,1.4-.35,1.53-1.06.13-.71-.35-1.4-1.06-1.53"/>
      <path class="cls-1" d="M94.39,41.96v46.36c0,.73.59,1.32,1.32,1.32s1.32-.59,1.32-1.32v-46.36c0-.73-.59-1.32-1.32-1.32s-1.32.59-1.32,1.32"/>
      <path class="cls-1" d="M94.39,88.47v45.65l-45.7-8.11c-.72-.13-1.4.35-1.53,1.07-.13.72.35,1.4,1.07,1.53l47.24,8.38c.38.07.78-.04,1.07-.29.3-.25.47-.62.47-1.01v-47.22c0-.73-.59-1.32-1.32-1.32s-1.32.59-1.32,1.32h0Z"/>
      <path class="cls-1" d="M109.53,135.68V41.96c0-.73-.59-1.32-1.32-1.32s-1.32.59-1.32,1.32v76.86s0,16.87,0,16.87c0,.73.59,1.32,1.32,1.32s1.32-.59,1.32-1.32h0Z"/>
      <path class="cls-1" d="M152.53,80.59v-.36c0-.14-.11-.25-.25-.25s-.25.11-.25.25v.36c0,.14.11.25.25.25s.25-.11.25-.25"/>
      <path class="cls-1" d="M199.8,118.99l-.2-.16c-.1-.09-.26-.07-.35.03s-.07.26.03.35l.2.16c.1.09.26.07.35-.03.09-.1.07-.26-.03-.35"/>
      <polygon class="cls-1" points="95.71 41.03 48.35 79.96 48.35 32.67 95.71 41.03"/>
      <path class="cls-1" d="M95.71,41.03l-.63-.76-45.75,37.61v-44.02l46.2,8.15.17-.97-.63-.76.63.76.17-.97-47.36-8.35c-.29-.05-.58.03-.81.22-.22.19-.35.46-.35.76v47.29c0,.38.22.73.57.89.34.16.75.11,1.05-.13l47.36-38.93c.3-.24.43-.64.33-1.01-.1-.37-.41-.65-.78-.72l-.17.97Z"/>
      <polygon class="cls-1" points="48.35 79.96 1 118.89 .99 118.88 .99 71.62 48.35 79.96"/>
      <path class="cls-1" d="M48.35,79.96l-.63-.76L.37,118.13l.63.76.44-.88h-.01s-.44.88-.44.88h.99v-46.09l46.2,8.14.17-.97-.63-.76.63.76.17-.97L1.16,70.64c-.29-.05-.58.03-.81.22-.22.19-.35.46-.35.76v47.27c0,.37.21.72.55.88h.01c.35.18.76.13,1.07-.11l47.35-38.93c.3-.24.43-.64.33-1.01-.1-.37-.41-.65-.78-.72l-.17.97Z"/>
      <polygon class="cls-1" points="155.57 32.67 155.57 79.96 155.39 80 154.95 80.07 108.21 41.44 108.21 41.02 155.57 32.67"/>
      <path class="cls-1" d="M155.57,32.67h-.99v47.3h.99l-.17-.97-.18.03-.44.08.17.97.63-.76-46.74-38.64-.63.76h.99v-.41h-.99l.17.97,47.36-8.35-.17-.97h-.99.99l-.17-.97-47.36,8.35c-.47.08-.82.49-.82.97v.41c0,.29.13.57.36.76l46.74,38.64c.22.18.52.26.8.21l.44-.08.18-.03c.47-.08.81-.49.81-.97v-47.3c0-.29-.13-.57-.35-.76-.22-.19-.52-.27-.81-.22l.17.97Z"/>
      <polygon class="cls-1" points="95.71 88.32 95.71 88.47 48.47 127.31 48.46 127.31 48.35 127.29 48.35 79.96 95.71 88.32"/>
      <path class="cls-1" d="M95.71,88.32h-.99v.15h.99l-.63-.76-47.24,38.84.63.76v-.99h0v.99l.17-.97-.11-.02-.17.97h.99v-46.15l46.2,8.15.17-.97h-.99.99l.17-.97-47.36-8.35c-.29-.05-.58.03-.81.22-.22.19-.35.46-.35.76v47.33c0,.48.34.89.82.97l.11.02.17.02h0c.23,0,.45-.08.63-.22l47.24-38.84c.23-.19.36-.47.36-.76v-.15c0-.48-.34-.89-.82-.97l-.17.97Z"/>
      <polygon class="cls-1" points="202.93 24.32 202.93 71.61 155.57 32.67 155.57 32.67 202.93 24.32"/>
      <path class="cls-1" d="M202.93,24.32h-.99v45.2l-45.75-37.61-.63.76h.99s-.99,0-.99,0l.17.97,47.36-8.35-.17-.97h-.99.99l-.17-.97-47.36,8.35c-.47.08-.82.49-.82.97h0c0,.3.13.58.36.77l47.36,38.93c.29.24.7.29,1.05.13.34-.16.57-.51.57-.89V24.32c0-.29-.13-.57-.35-.76s-.52-.27-.81-.22l.17.97Z"/>
      <polygon class="cls-1" points="202.93 71.61 202.93 118.98 202.74 119.02 155.57 80.24 155.57 79.96 202.93 71.61"/>
      <path class="cls-1" d="M202.93,71.61h-.99v47.37h.99l-.16-.97-.2.03.16.97.63-.76-47.16-38.78-.63.76h.99v-.28h-.99l.17.97,47.36-8.35-.17-.97h-.99.99l-.17-.97-47.36,8.35c-.47.08-.82.49-.82.97v.28c0,.3.13.57.36.76l47.16,38.78c.22.18.51.26.79.21l.2-.03c.48-.08.82-.49.82-.97v-47.37c0-.29-.13-.57-.35-.76-.22-.19-.52-.27-.81-.22l.17.97Z"/>
      <polygon class="cls-1" points="155.57 80.59 155.57 127.34 155.45 127.36 108.21 88.82 108.21 88.32 154.95 80.07 155.57 80.59"/>
      <path class="cls-1" d="M155.57,80.59h-.99v46.74h.99l-.15-.97-.12.02.15.97.62-.76-46.87-38.24v-.04h-.99l.17.97,46.29-8.16.27.23.63-.76h-.99.99l.63-.76-.62-.52c-.22-.18-.52-.26-.8-.21l-46.74,8.24c-.47.08-.82.49-.82.97v.51c0,.3.13.58.36.76l47.24,38.53c.22.18.5.25.78.21l.12-.02c.48-.08.83-.49.83-.97v-46.74c0-.29-.13-.57-.36-.76l-.63.76Z"/>
      <polygon class="cls-1" points="48.35 32.67 .99 71.61 .99 24.33 48.35 32.67"/>
      <path class="cls-1" d="M48.35,32.67l-.63-.76L1.97,69.52V25.5l46.2,8.14.17-.97-.63-.76.63.76.17-.97L1.16,23.35c-.29-.05-.58.03-.81.22-.22.19-.35.46-.35.76v47.28c0,.38.22.73.57.89.34.16.75.11,1.05-.13l47.36-38.93c.3-.25.43-.64.33-1.01-.1-.37-.4-.65-.78-.72l-.17.97Z"/>
      <path class="cls-1" d="M6.02,19.4C38.07,13.8,70.13,8.21,102.19,2.61l-.23-1.3-.22,1.3c31.87,5.43,63.75,10.85,95.62,16.28.72.12,1.4-.36,1.52-1.08.12-.72-.36-1.4-1.08-1.52C165.93,10.87,134.05,5.45,102.18.02c-.14-.02-.3-.02-.45,0C69.68,5.61,37.62,11.21,5.56,16.81c-.72.12-1.19.81-1.07,1.52.12.72.81,1.19,1.52,1.07h0Z"/>
      <path class="cls-1" d="M155.79,128.63h.04s-.22-1.3-.22-1.3v1.32h0c.08,0,.16,0,.23-.02l46.31-8.31c.72-.13,1.19-.81,1.06-1.53-.13-.72-.81-1.19-1.53-1.06l-46.31,8.31.23,1.29v-1.32h0c-.08,0-.14,0-.22.02h-.04c-.72.13-1.2.81-1.08,1.52.12.72.8,1.2,1.52,1.08h0Z"/>
      <path class="cls-1" d="M248.25,110.69c-2.57,0-4.94-.42-7.1-1.26-2.16-.84-4.05-2.04-5.65-3.6-1.61-1.56-2.85-3.37-3.74-5.44-.89-2.07-1.34-4.35-1.34-6.87s.44-4.8,1.34-6.87c.89-2.07,2.15-3.88,3.77-5.44,1.62-1.56,3.51-2.76,5.67-3.6,2.16-.84,4.53-1.26,7.1-1.26,2.73,0,5.23.47,7.49,1.41,2.26.94,4.16,2.33,5.72,4.17l-4,3.77c-1.24-1.3-2.61-2.28-4.1-2.93-1.49-.65-3.1-.98-4.82-.98s-3.35.29-4.79.86c-1.45.57-2.7,1.38-3.77,2.43-1.07,1.05-1.9,2.29-2.5,3.72-.6,1.43-.91,3-.91,4.72s.3,3.29.91,4.72c.6,1.43,1.44,2.67,2.5,3.72,1.06,1.05,2.32,1.86,3.77,2.43,1.45.57,3.04.86,4.79.86s3.32-.33,4.82-.98c1.49-.65,2.86-1.65,4.1-2.98l4,3.77c-1.56,1.84-3.46,3.24-5.72,4.2-2.26.95-4.77,1.43-7.53,1.43Z"/>
      <path class="cls-1" d="M278.86,110.54c-2.83,0-5.3-.56-7.41-1.69-2.11-1.13-3.75-2.67-4.91-4.62-1.16-1.95-1.74-4.2-1.74-6.75s.56-4.79,1.69-6.75c1.13-1.95,2.69-3.5,4.67-4.62,1.99-1.13,4.25-1.69,6.79-1.69s4.69.55,6.63,1.65c1.94,1.1,3.46,2.63,4.58,4.6,1.11,1.97,1.67,4.31,1.67,7.01,0,.22,0,.5-.02.83-.02.33-.04.63-.07.88h-21.22v-3.96h18.07l-2.38,1.24c.03-1.43-.26-2.71-.88-3.84-.62-1.13-1.47-2-2.55-2.62-1.08-.62-2.35-.93-3.81-.93s-2.71.31-3.84.93c-1.13.62-1.99,1.5-2.6,2.65-.6,1.14-.91,2.46-.91,3.96v.95c0,1.53.34,2.88,1.02,4.05.68,1.18,1.66,2.09,2.93,2.74,1.27.65,2.75.98,4.43.98,1.43,0,2.72-.24,3.86-.72,1.14-.48,2.16-1.18,3.05-2.1l3.24,3.72c-1.18,1.34-2.63,2.35-4.36,3.05-1.73.7-3.71,1.05-5.94,1.05Z"/>
      <path class="cls-1" d="M310.99,84.42c2.07,0,3.89.4,5.46,1.19,1.57.8,2.83,2.02,3.77,3.67.94,1.65,1.41,3.77,1.41,6.34v14.59h-5.96v-13.83c0-2.26-.52-3.94-1.57-5.05-1.05-1.11-2.54-1.67-4.48-1.67-1.4,0-2.64.29-3.72.86-1.08.57-1.92,1.42-2.5,2.55-.59,1.13-.88,2.55-.88,4.27v12.87h-5.91v-25.46h5.67v6.91l-1-2.15c.86-1.62,2.14-2.88,3.84-3.77,1.7-.89,3.66-1.34,5.89-1.34Z"/>
      <path class="cls-1" d="M325.82,89.71v-4.77h16.97v4.77h-16.97ZM338.79,110.54c-2.8,0-4.96-.72-6.48-2.17-1.53-1.45-2.29-3.57-2.29-6.36v-22.89h5.91v22.69c0,1.21.32,2.15.95,2.81.64.67,1.53,1,2.67,1,1.3,0,2.38-.35,3.24-1.05l1.72,4.24c-.73.57-1.61,1-2.62,1.29-1.02.29-2.05.43-3.1.43Z"/>
      <path class="cls-1" d="M349.47,110.21v-25.46h5.67v7.01l-.67-2.05c.73-1.72,1.92-3.03,3.58-3.93,1.65-.91,3.67-1.36,6.05-1.36v5.67c-.22-.03-.45-.05-.67-.07-.22-.02-.43-.02-.62-.02-2.29,0-4.1.65-5.44,1.95-1.34,1.3-2,3.29-2,5.96v12.3h-5.91Z"/>
      <path class="cls-1" d="M377.12,110.54c-1.91,0-3.58-.33-5.01-.98s-2.53-1.56-3.31-2.72c-.78-1.16-1.17-2.47-1.17-3.93s.34-2.72,1.02-3.86c.68-1.14,1.8-2.05,3.36-2.72,1.56-.67,3.62-1,6.2-1h7.39v3.96h-6.96c-2,0-3.36.33-4.08.98-.71.65-1.07,1.47-1.07,2.46,0,1.05.43,1.89,1.29,2.53.86.64,2.05.95,3.58.95s2.77-.33,3.93-1c1.16-.67,2.01-1.65,2.55-2.96l.95,3.58c-.57,1.49-1.59,2.65-3.05,3.48-1.46.83-3.34,1.24-5.63,1.24ZM385.13,110.21v-5.2l-.29-1.05v-9.01c0-1.75-.53-3.11-1.6-4.08-1.07-.97-2.68-1.45-4.84-1.45-1.4,0-2.78.22-4.15.67-1.37.45-2.54,1.07-3.53,1.86l-2.34-4.34c1.4-1.05,3.04-1.84,4.91-2.38,1.87-.54,3.83-.81,5.86-.81,3.72,0,6.58.89,8.58,2.67,2,1.78,3,4.51,3,8.2v14.92h-5.63Z"/>
      <path class="cls-1" d="M398.43,110.21v-35.38h5.91v35.38h-5.91Z"/>
      <path class="cls-1" d="M230.69,65.42V30.41h16.45c4.17,0,7.35.83,9.55,2.48,2.2,1.65,3.3,3.86,3.3,6.63,0,1.87-.43,3.46-1.3,4.78-.87,1.32-2.03,2.33-3.48,3.05-1.45.72-3.03,1.08-4.73,1.08l.9-1.8c1.97,0,3.73.36,5.3,1.08,1.57.72,2.8,1.76,3.7,3.13.9,1.37,1.35,3.07,1.35,5.1,0,3-1.14,5.33-3.43,7-2.28,1.67-5.68,2.5-10.18,2.5h-17.45ZM237.2,60.32h10.55c2.4,0,4.25-.4,5.55-1.2,1.3-.8,1.95-2.08,1.95-3.85s-.65-3.01-1.95-3.83c-1.3-.82-3.15-1.22-5.55-1.22h-11.05v-5.05h9.7c2.23,0,3.97-.4,5.2-1.2,1.23-.8,1.85-2,1.85-3.6s-.62-2.85-1.85-3.65c-1.23-.8-2.97-1.2-5.2-1.2h-9.2v24.8Z"/>
      <path class="cls-1" d="M268.2,65.42v-26.7h6.2v26.7h-6.2Z"/>
      <path class="cls-1" d="M282.65,65.42V28.31h6.2v16.6l-.5,7.1.25,7.1v6.3h-5.95ZM297.4,65.77c-2.23,0-4.25-.49-6.05-1.48-1.8-.98-3.19-2.49-4.18-4.53-.98-2.03-1.48-4.6-1.48-7.7s.52-5.71,1.55-7.73c1.03-2.02,2.43-3.52,4.2-4.5,1.77-.98,3.75-1.48,5.95-1.48,2.6,0,4.92.57,6.95,1.7,2.03,1.13,3.64,2.73,4.83,4.8,1.18,2.07,1.78,4.47,1.78,7.2s-.59,5.18-1.78,7.23c-1.18,2.05-2.79,3.64-4.83,4.78-2.03,1.13-4.35,1.7-6.95,1.7ZM296.65,60.47c1.53,0,2.89-.34,4.08-1.02,1.18-.68,2.13-1.67,2.83-2.95.7-1.28,1.05-2.76,1.05-4.43s-.35-3.18-1.05-4.43c-.7-1.25-1.64-2.22-2.83-2.9-1.18-.68-2.54-1.02-4.08-1.02s-2.8.34-4,1.02c-1.2.68-2.15,1.65-2.85,2.9-.7,1.25-1.05,2.73-1.05,4.43s.35,3.14,1.05,4.43c.7,1.28,1.65,2.27,2.85,2.95,1.2.68,2.53,1.02,4,1.02Z"/>
      <path class="cls-1" d="M316.95,65.42V28.31h6.2v37.11h-6.2Z"/>
      <path class="cls-1" d="M331.41,65.42v-26.7h6.2v26.7h-6.2Z"/>
      <path class="cls-1" d="M357.81,65.77c-2.7,0-5.13-.59-7.28-1.78-2.15-1.18-3.84-2.81-5.08-4.88-1.23-2.07-1.85-4.42-1.85-7.05s.62-5.07,1.85-7.1c1.23-2.03,2.92-3.64,5.05-4.83,2.13-1.18,4.57-1.78,7.3-1.78s5.23.59,7.38,1.78c2.15,1.18,3.83,2.79,5.05,4.83,1.22,2.03,1.83,4.4,1.83,7.1s-.61,5.03-1.83,7.08c-1.22,2.05-2.91,3.67-5.08,4.85-2.17,1.18-4.62,1.78-7.35,1.78ZM357.81,60.47c1.53,0,2.9-.34,4.1-1.02,1.2-.68,2.14-1.67,2.83-2.95.68-1.28,1.02-2.76,1.02-4.43s-.34-3.18-1.02-4.43c-.68-1.25-1.63-2.22-2.83-2.9-1.2-.68-2.55-1.02-4.05-1.02s-2.85.34-4.05,1.02c-1.2.68-2.15,1.65-2.85,2.9-.7,1.25-1.05,2.73-1.05,4.43s.35,3.14,1.05,4.43c.7,1.28,1.65,2.27,2.85,2.95,1.2.68,2.53,1.02,4,1.02Z"/>
      <path class="cls-1" d="M374.51,43.92v-5h17.8v5h-17.8ZM388.11,65.77c-2.93,0-5.2-.76-6.8-2.28-1.6-1.52-2.4-3.74-2.4-6.68v-24h6.2v23.8c0,1.27.33,2.25,1,2.95.67.7,1.6,1.05,2.8,1.05,1.37,0,2.5-.37,3.4-1.1l1.8,4.45c-.77.6-1.68,1.05-2.75,1.35-1.07.3-2.15.45-3.25.45Z"/>
      <path class="cls-1" d="M411.82,65.77c-2.97,0-5.56-.59-7.78-1.78-2.22-1.18-3.93-2.8-5.15-4.85-1.22-2.05-1.83-4.41-1.83-7.08s.59-5.03,1.78-7.08c1.18-2.05,2.82-3.67,4.9-4.85,2.08-1.18,4.46-1.78,7.13-1.78s4.92.58,6.95,1.73c2.03,1.15,3.63,2.76,4.8,4.83,1.17,2.07,1.75,4.52,1.75,7.35,0,.23,0,.52-.03.87-.02.35-.04.66-.07.93h-22.25v-4.15h18.95l-2.5,1.3c.03-1.5-.27-2.84-.93-4.03-.65-1.18-1.54-2.1-2.68-2.75-1.13-.65-2.47-.98-4-.98s-2.84.33-4.03.98c-1.18.65-2.09,1.58-2.73,2.78-.63,1.2-.95,2.58-.95,4.15v1c0,1.6.36,3.02,1.08,4.25.72,1.23,1.74,2.19,3.08,2.88,1.33.68,2.88,1.03,4.65,1.03,1.5,0,2.85-.25,4.05-.75,1.2-.5,2.27-1.23,3.2-2.2l3.4,3.9c-1.23,1.4-2.76,2.47-4.58,3.2-1.82.73-3.89,1.1-6.23,1.1Z"/>
      <path class="cls-1" d="M442.62,65.77c-2.8,0-5.29-.59-7.48-1.78-2.18-1.18-3.89-2.8-5.13-4.85-1.23-2.05-1.85-4.41-1.85-7.08s.62-5.07,1.85-7.1c1.23-2.03,2.94-3.64,5.13-4.83,2.18-1.18,4.68-1.78,7.48-1.78,2.57,0,4.85.53,6.85,1.6,2,1.07,3.5,2.62,4.5,4.65l-4.75,2.8c-.8-1.23-1.78-2.16-2.93-2.78-1.15-.62-2.39-.93-3.73-.93-1.53,0-2.92.34-4.15,1.02-1.23.68-2.2,1.65-2.9,2.9-.7,1.25-1.05,2.73-1.05,4.43s.35,3.18,1.05,4.45c.7,1.27,1.67,2.24,2.9,2.93,1.23.68,2.62,1.02,4.15,1.02,1.33,0,2.58-.31,3.73-.93,1.15-.62,2.13-1.56,2.93-2.83l4.75,2.8c-1,2-2.5,3.54-4.5,4.63-2,1.08-4.28,1.63-6.85,1.63Z"/>
      <path class="cls-1" d="M467.47,65.77c-2,0-3.75-.34-5.25-1.02-1.5-.68-2.66-1.63-3.48-2.85-.82-1.22-1.22-2.59-1.22-4.13s.36-2.85,1.08-4.05c.72-1.2,1.89-2.15,3.53-2.85,1.63-.7,3.8-1.05,6.5-1.05h7.75v4.15h-7.3c-2.1,0-3.53.34-4.28,1.03-.75.68-1.12,1.54-1.12,2.58,0,1.1.45,1.98,1.35,2.65.9.67,2.15,1,3.75,1s2.91-.35,4.13-1.05c1.22-.7,2.11-1.73,2.68-3.1l1,3.75c-.6,1.57-1.67,2.78-3.2,3.65-1.53.87-3.5,1.3-5.9,1.3ZM475.87,65.42v-5.45l-.3-1.1v-9.45c0-1.83-.56-3.26-1.68-4.28-1.12-1.02-2.81-1.52-5.08-1.52-1.47,0-2.92.23-4.35.7-1.43.47-2.67,1.12-3.7,1.95l-2.45-4.55c1.47-1.1,3.18-1.93,5.15-2.5,1.97-.57,4.02-.85,6.15-.85,3.9,0,6.9.93,9,2.8,2.1,1.87,3.15,4.73,3.15,8.6v15.65h-5.9Z"/>
    </g>
  </g>
</svg>
